<svg id="레이어_1" data-name="레이어 1" xmlns="http://www.w3.org/2000/svg" viewBox="0 0 157 157"><defs><style>.cls-1{fill:#9de7fa;}.cls-2{fill:#fff;}.cls-3{fill:#f80;}.cls-4{fill:#f87f00;}.cls-5{fill-opacity:0;}.cls-6{fill:#f80000;}</style></defs><circle class="cls-1" cx="78.5" cy="78.5" r="78.5"/><ellipse class="cls-2" cx="79" cy="79" rx="55.5" ry="44.5"/><path d="M67,133.53c-.18-13.08.36-19.87,1.64-26.5,1.61-8.29,5.69-14.35,9-16a12.71,12.71,0,0,1,11,0c4.62,2.28,6.31,7,7,9,3,9,2,15,2,19a12.13,12.13,0,0,1,5-1,14.62,14.62,0,0,1,5,1c0-3-1-8,1-17,.53-2.38,2.2-8.45,7-11,3.78-2,7.36-2.33,10.87-.5,3,1.56,6.93,5.54,8.92,14,4,17,1.79,28,1.79,31,0,0,12.55-5.52,19-21,5-12,3-26-3-35C140.45,60.38,118.63,55,102.65,55c-17,0-37.44,5.5-49.43,25.5-9,15-3.34,30.07-3,31C55.22,125.53,64,131.52,67,133.53Z" transform="translate(-24.72 -21.03)"/><path class="cls-3" d="M97.22,118.53c-2.25.59-3,1.9-3,3s2.3,3.39,4.48,5a6.81,6.81,0,0,0,3.17,1.29,11.51,11.51,0,0,0,3.35-.31c3-1,6-5,6-6s-.75-2.41-3-3A30.19,30.19,0,0,0,97.22,118.53Z" transform="translate(-24.72 -21.03)"/><circle cx="58" cy="90.5" r="4.5"/><circle cx="98" cy="90.5" r="4.5"/><path d="M77.72,104.22a13.79,13.79,0,0,0,10.83,6.94,2.43,2.43,0,0,0,1.7-.7,2.4,2.4,0,0,0-1.7-4.1c-.07,0-.52-.06-.07,0s0,0-.07,0-.43-.08-.65-.13a11.16,11.16,0,0,1-1.25-.37l-.25-.1c-.44-.16.41.19.15.07l-.59-.28a13,13,0,0,1-1.14-.66l-.48-.33c-.39-.28.33.27.12.09l-.26-.2c-.33-.29-.65-.59-1-.9l-.44-.49-.16-.21c.46.52.16.21.06.07a10.48,10.48,0,0,1-.71-1.11,2.4,2.4,0,1,0-4.14,2.43Z" transform="translate(-24.72 -21.03)"/><path d="M123.24,101.79a9,9,0,0,1-.7,1.11c-.05.08-.3.4-.05.07s0,0-.06.07-.28.33-.44.49a10.38,10.38,0,0,1-.9.85l-.25.21c-.32.26.36-.26.12-.09s-.35.25-.54.37a11.53,11.53,0,0,1-1.07.63l-.6.28c-.37.18.43-.16.15-.06l-.3.12a10.73,10.73,0,0,1-1.26.37,5.41,5.41,0,0,1-.58.12,1.64,1.64,0,0,1-.32,0l.38,0-.26,0a2.6,2.6,0,0,0-1.7.7,2.4,2.4,0,0,0,1.7,4.1,13.79,13.79,0,0,0,10.83-6.94,2.4,2.4,0,1,0-4.15-2.43Z" transform="translate(-24.72 -21.03)"/><circle class="cls-4" cx="27.36" cy="61.46" r="8.16"/><rect class="cls-5" x="13" y="38.01" width="27.08" height="36.71"/><path class="cls-6" d="M50.49,92.9a16.25,16.25,0,0,0,5.85-1,13.18,13.18,0,0,0,4.52-2.85,12.45,12.45,0,0,0,2.92-4.43,15.46,15.46,0,0,0,1-5.73,20,20,0,0,0-.95-6.34,17.87,17.87,0,0,0-2.57-5,19,19,0,0,0-3.75-3.8,22.8,22.8,0,0,0-4.46-2.65,23.69,23.69,0,0,0-4.73-1.53A22.3,22.3,0,0,0,43.81,59a3.6,3.6,0,0,0-1.82.38,1.24,1.24,0,0,0-.68,1.14,1.43,1.43,0,0,0,.13.59,2.27,2.27,0,0,0,.39.58c.64.74,1.25,1.53,1.85,2.36a14,14,0,0,1,1.46,2.65,7.91,7.91,0,0,1,.59,2.94,5.1,5.1,0,0,1-.1,1,4,4,0,0,1-.5,1.17l.81-.16a6.42,6.42,0,0,0-1.08-2,5.61,5.61,0,0,0-1.59-1.39,3.56,3.56,0,0,0-1.75-.5,1.07,1.07,0,0,0-.81.33,1.17,1.17,0,0,0-.31.85c0,.2,0,.5.06.91s0,.79,0,1.14a7,7,0,0,1-.27,2,15.64,15.64,0,0,1-.7,1.86c-.28.63-.56,1.3-.84,2a16.29,16.29,0,0,0-.7,2.37,14.34,14.34,0,0,0-.28,3,9.87,9.87,0,0,0,1.59,5.6,10.54,10.54,0,0,0,4.46,3.73A15.83,15.83,0,0,0,50.49,92.9Zm.72-18.32a9.13,9.13,0,0,1,4.8,5,8.28,8.28,0,0,1,.61,3.08A6.66,6.66,0,0,1,56,85.54a5.21,5.21,0,0,1-1.91,2.15,5.88,5.88,0,0,1-3.21.81,5.38,5.38,0,0,1-3.67-1.21,4,4,0,0,1-1.39-3.19,4.56,4.56,0,0,1,.32-1.78A7.47,7.47,0,0,1,46.87,81c.28-.4.54-.79.78-1.16a3,3,0,0,0,.45-1.23c0-.07,0-.12.09-.13a.15.15,0,0,1,.16,0,5,5,0,0,1,.95,1.07A10.77,10.77,0,0,1,50,80.83a5.74,5.74,0,0,0,.93-2.5A13.27,13.27,0,0,0,51,74.75" transform="translate(-24.72 -21.03)"/></svg>