<svg id="레이어_1" data-name="레이어 1" xmlns="http://www.w3.org/2000/svg" viewBox="0 0 120.61 105.32"><defs><style>.cls-1{fill:#fff;}.cls-2{fill:#f8cd00;}</style></defs><path d="M39.81,133.59a32.36,32.36,0,0,1,3-6.34c2.6-4.71,3.43-10,3.74-15.21,1.07-18,6.58-31.62,9.76-36.17,2.49-3.58,6.61-11.15,18.37-17.8A58.21,58.21,0,0,1,97.91,50.9c1.61-.15,23.88-1.89,39.61,14.35,11.12,11.48,13.3,26.11,13.77,29.28.89,6,2.18,12.59,3.56,23.12,1.32,10.13.92,7.54,2.15,14.64" transform="translate(-36.39 -50.77)"/><path class="cls-1" d="M51.88,136.17c2.56-5.65,3.41-9,3.87-15.94.44-6.46.08-4.91.44-13.79.33-8.35,1.89-13.4,5.41-19.09A34,34,0,0,1,75.54,74.61a46.36,46.36,0,0,1,15.6-4.72c16.39-2,29.13,7.32,31.82,9,5,3.08,10.42,10.74,12.93,19,1.53,5,1.72,6.89,2.58,14.65.72,6.43.54,7.41.87,11.2.86,9.91.47,14,3.87,17.66" transform="translate(-36.39 -50.77)"/><ellipse cx="73.43" cy="58.1" rx="3.59" ry="6.03"/><ellipse cx="34.39" cy="58.1" rx="3.59" ry="6.03"/><path class="cls-2" d="M87.67,112.17a11.48,11.48,0,0,0-6.46,2.59c-1,.94-2.34,2.87-1.68,4.74,1.14,3.18,10.77,4.36,15.79,2.29,1.4-.57,2.26-1,2.69-2.29.61-1.85-2.16-4.74-4.31-6A10.74,10.74,0,0,0,87.67,112.17Z" transform="translate(-36.39 -50.77)"/><path d="M51.9,123.08c-4.39-.83-11-.21-13.72,3.51-1,1.31-3.2,6.58-.52,14.75,2.61,8,5.35,9.86,8.21,11.52.4.23,3.61,2,6.36,1.17,4.49-1.42,2.17-8.28,4.82-17.43,1.12-3.89,1-4.55.86-6.89A6.87,6.87,0,0,0,51.9,123.08Z" transform="translate(-36.39 -50.77)"/><path d="M118.26,124.92c-4.39-.84-11-.22-13.72,3.5-1,1.31-3.19,6.58-.51,14.75,2.61,8,5.34,9.87,8.21,11.52.4.23,3.61,2,6.36,1.17,4.48-1.42,2.17-8.27,4.81-17.43,1.13-3.89,1-4.55.87-6.89A6.86,6.86,0,0,0,118.26,124.92Z" transform="translate(-36.39 -50.77)"/></svg>