<svg id="레이어_1" data-name="레이어 1" xmlns="http://www.w3.org/2000/svg" viewBox="0 0 157 157"><defs><style>.cls-1{fill:#9de7fa;}.cls-2{fill:#fff;}.cls-3{fill:#f80;}.cls-4{fill-opacity:0;}.cls-5{fill:#52be20;}</style></defs><circle class="cls-1" cx="78.5" cy="78.5" r="78.5"/><ellipse class="cls-2" cx="79" cy="79" rx="55.5" ry="44.5"/><path d="M63.58,133.68c-.18-13.09.36-19.87,1.64-26.5,1.61-8.29,5.68-14.36,9-16a12.68,12.68,0,0,1,11,0c4.62,2.27,6.31,6.95,7,9,3,9,2,15,2,19a12.13,12.13,0,0,1,5-1,14.35,14.35,0,0,1,5,1c0-3-1-8,1-17,.53-2.38,2.19-8.46,7-11,3.78-2,7.36-2.33,10.87-.5,3,1.56,6.93,5.53,8.92,14,4,17,1.79,28,1.79,31,0,0,12.55-5.53,19-21,5-12,3-26-3-35C137,60.52,115.17,55.18,99.19,55.18c-17,0-37.44,5.5-49.43,25.5-9,15-3.34,30.06-3,31C51.76,125.68,60.57,131.66,63.58,133.68Z" transform="translate(-21.26 -21.18)"/><path class="cls-3" d="M93.76,118.68c-2.25.58-3,1.89-3,3s2.3,3.38,4.48,5A6.9,6.9,0,0,0,98.4,128a11.68,11.68,0,0,0,3.36-.3c3-1,6-5,6-6s-.75-2.42-3-3A29.75,29.75,0,0,0,93.76,118.68Z" transform="translate(-21.26 -21.18)"/><circle cx="58" cy="90.5" r="4.5"/><circle cx="98" cy="90.5" r="4.5"/><circle cx="28.44" cy="58.09" r="8.65"/><rect class="cls-4" x="12.04" y="45.59" width="32.54" height="24.93"/><path class="cls-5" d="M33.73,68.36a15.25,15.25,0,0,0-.34,2.19c-.06.79-.1,1.48-.1,2.06a17.8,17.8,0,0,0,1.2,6.69,14.52,14.52,0,0,0,3.44,5.15,15.21,15.21,0,0,0,5.36,3.32,19.7,19.7,0,0,0,7,1.16,16,16,0,0,0,3.55-.35,14.06,14.06,0,0,0,2.77-.91,12.23,12.23,0,0,0,2-1.17,11.29,11.29,0,0,0,1.34-1.17,6.51,6.51,0,0,0,.7-.88l-1.89,0a10.8,10.8,0,0,1,1.65,1.86,13.27,13.27,0,0,1,1.18,2.09c.34.75.67,1.58,1,2.48a1.23,1.23,0,0,0,.52.66,1.45,1.45,0,0,0,.73.19,2,2,0,0,0,1.42-.56,1.92,1.92,0,0,0,.59-1.43,3.24,3.24,0,0,0-.48-1.55,11.07,11.07,0,0,0-1.2-1.77,20.46,20.46,0,0,0-1.51-1.67q-.78-.76-1.35-1.26a13.23,13.23,0,0,0-3.53-2A22.78,22.78,0,0,0,54,80.3q-1.94-.37-3.78-.66a29.59,29.59,0,0,1-3.45-.7,9.12,9.12,0,0,1-2.81-1.24,5.17,5.17,0,0,1-1.86-2.27.39.39,0,0,1,.16-.54.56.56,0,0,1,.69.14,8.66,8.66,0,0,0,2.71,1.66,13.31,13.31,0,0,0,2.92.74c1,.14,2,.24,3.08.31s2.1.19,3.18.37A15.33,15.33,0,0,1,58,79a12.67,12.67,0,0,1,3.26,2,.85.85,0,0,0,.76.18.57.57,0,0,0,.45-.47,5,5,0,0,0,.09-.7c0-.29,0-.57,0-.86a8.66,8.66,0,0,0-1.58-5.32,9.44,9.44,0,0,0-4.37-3.14,18,18,0,0,0-6.38-1c-.81,0-1.64,0-2.5.12L45.23,70a22.43,22.43,0,0,1-2.38.13q-1.2,0-2.49-.12a10.07,10.07,0,0,1-2.51-.59,7.19,7.19,0,0,1-2.32-1.48,1.26,1.26,0,0,0-1-.34A.91.91,0,0,0,33.73,68.36Z" transform="translate(-21.26 -21.18)"/></svg>