<svg xmlns="http://www.w3.org/2000/svg" viewBox="0 0 8.59 10"><defs><style>.cls-1{fill:#fff;}</style></defs><g id="레이어_2" data-name="레이어 2"><path class="cls-1" d="M104.28,116a2.51,2.51,0,0,0-1.49.46,2.55,2.55,0,0,0-.69,1.83c0,.65.12.77,0,1.27,0,.18-.72.53-1.28,1.29a2.85,2.85,0,0,0-.83,2c0,.23.05.8.16.83s.28-.43.57-.79c.48-.56.54-.58.58-.57s0,.3,0,.69a2.78,2.78,0,0,0,.34,1.72c.28.39.39.42.34.61s-.83,0-.66.5a3.1,3.1,0,0,0,1,.17c.36,0,.55-.15.82-.13s.49.08.81.11a2.69,2.69,0,0,0,1.14-.11c.46-.12.78.11,1.27.11.22,0,.79-.07.78-.15s0-.5-.33-.5c-.12,0-.43-.07-.34-.15a2.49,2.49,0,0,0,.69-1.38c.15-.79-.31-1.39-.18-1.46s1.28,1.26,1.49,1.17.16-.7,0-1.17a3.28,3.28,0,0,0-1-1.66c-.67-.66-1-.9-1.12-1.12a3.6,3.6,0,0,1-.12-1.5,2,2,0,0,0-.57-1.49A2,2,0,0,0,104.28,116Z" transform="translate(-99.98 -116)"/></g></svg>