<?xml version="1.0" encoding="UTF-8"?>
<svg width="330px" height="330px" viewBox="0 0 330 330" version="1.1" xmlns="http://www.w3.org/2000/svg" xmlns:xlink="http://www.w3.org/1999/xlink">
    <title>Group 34</title>
    <g id="Page-1" stroke="none" stroke-width="1" fill="none" fill-rule="evenodd">
        <g id="Group-34">
            <rect id="Rectangle" fill="#FFFFFF" x="0" y="0" width="330" height="330" rx="15"></rect>
            <text id="Lv.-2" font-family="AppleSDGothicNeo-Bold, Apple SD Gothic Neo" font-size="28" font-weight="bold" fill="#159CCD">
                <tspan x="136.488" y="50">Lv. 2</tspan>
            </text>
            <text id="Lv.-3" font-family="AppleSDGothicNeo-Bold, Apple SD Gothic Neo" font-size="16" font-weight="bold" fill="#B0B0B0">
                <tspan x="270.628" y="273">Lv. 3</tspan>
            </text>
            <text id="Lawn" font-family="AppleSDGothicNeo-Bold, Apple SD Gothic Neo" font-size="18" font-weight="bold" fill="#000000">
                <tspan x="144.715" y="223">Lawn</tspan>
            </text>
            <path d="M298,286.5 C298.324555,286.5 298.640356,286.605267 298.9,286.8 L298.9,286.8 L309.566667,294.8 C309.898038,295.048528 310.097302,295.407843 310.151591,295.787868 C310.20588,296.167893 310.115195,296.568629 309.866667,296.9 L309.866667,296.9 L298.9,305.2 C298.568629,305.448528 298.167893,305.539214 297.787868,305.484924 C297.407843,305.430635 297.048528,305.231371 296.8,304.9 C296.605267,304.640356 296.5,304.324555 296.5,304 L296.5,304 L296.5,300.5 L25,300.5 C23.7573593,300.5 22.6323593,299.99632 21.8180195,299.181981 C21.0036797,298.367641 20.5,297.242641 20.5,296 C20.5,294.757359 21.0036797,293.632359 21.8180195,292.818019 C22.6323593,292.00368 23.7573593,291.5 25,291.5 L25,291.5 L296.5,291.5 L296.5,288 C296.5,287.585786 296.667893,287.210786 296.93934,286.93934 C297.210786,286.667893 297.585786,286.5 298,286.5 Z" id="Combined-Shape" stroke="#E2E2E2" fill="#EDEDED"></path>
            <g id="Group-33" transform="translate(114.000000, 66.000000)" fill-rule="nonzero">
                <g id="펭귄3-2" fill="#D7D7D7">
                    <path d="M51.1546639,0.0368558135 C47.2405202,0.273368848 38.2508935,1.32942705 32.1431089,6.29620077 C30.5823672,7.56677079 23.4852935,11.9835142 22.0474448,23.3471405 C21.6296084,26.6473223 22.2317844,33.0221737 25.3655572,37.4224162 C27.9954684,41.1076192 29.1322292,41.3716338 29.1322292,42.372689 C29.1322292,42.6917065 28.4317388,42.9887229 26.6252109,44.5728102 C10.7228501,58.505078 12.7075729,74.3184495 6.16966261,80.5997957 C5.420015,81.3203354 4.72566926,82.0793772 4.00060026,82.7999169 C0.627186017,86.2266058 -0.159329509,86.9251443 0.0250100676,87.8656961 C0.252362212,89.0372607 1.83153792,89.8183037 2.91299676,90.0658174 C2.91299676,90.0658174 5.06362515,90.5113419 9.05764931,88.4817301 C12.9042018,86.5236222 13.6477048,85.0495409 14.4772328,85.3190558 C16.1608676,85.8690861 12.9472144,91.891918 14.1146983,100.169874 C14.7721762,104.823131 15.6201382,110.851463 19.8968164,115.999747 C20.2654955,116.439771 22.0413001,118.656393 21.3223758,119.33293 C20.8430929,119.789455 19.7247661,119.387933 18.4405337,119.965465 C17.3099177,120.471493 16.277616,121.86307 17.3713642,123.265647 C19.6080177,126.175307 35.3321836,124.607721 44.1067474,122.633112 C46.4659248,122.05651 48.8942521,121.737013 51.3390035,121.68156 C55.5419458,121.599055 59.7203095,123.480159 62.4301013,124.371208 C73.9697588,128.160917 85.6876112,127.379874 86.2283406,125.003743 C86.9534096,121.846569 80.4585119,121.214034 80.4585119,121.214034 C80.102122,119.629947 81.4846688,116.60478 83.1314357,114.718176 C86.1115922,111.307988 87.6477553,105.054143 87.8320949,95.720129 C87.9488433,89.6037919 87.4757051,85.8635858 87.1070259,84.9560358 C86.9534096,84.5655142 88.4588495,87.4476731 89.1163273,88.3552231 C90.1939664,89.9059772 91.6683122,91.2049792 93.4175841,92.1449319 C96.3055708,93.4100017 99.7404315,93.9435311 100.631406,92.7774668 C102.069255,90.8798622 98.9170481,87.827194 97.7434195,85.8250837 C95.9000237,82.7229127 93.4974645,80.0827672 91.2546664,70.6607479 C88.7968054,60.2431738 86.3389443,54.5613607 85.0239887,52.7462607 C80.7227319,46.6959272 79.4938014,46.1458969 77.4476321,44.495806 C76.8331669,44.0172796 77.4476321,43.643259 79.960795,40.6455938 C84.9809761,34.5952603 84.876517,28.3854181 84.9195296,26.0697905 C84.9195296,19.5409307 81.7304549,14.8931746 80.2188704,12.7700575 C76.4409559,7.04498335 70.3057305,2.87424697 63.1305917,1.15341735 C59.2227921,0.250529621 55.186447,-0.125794264 51.1546639,0.0368558135 L51.1546639,0.0368558135 Z" id="Path"></path>
                </g>
                <g id="questionmark.circle" transform="translate(10.000000, 32.000000)">
                    <rect id="Rectangle" fill="#000000" opacity="0" x="0" y="0" width="83" height="77"></rect>
                    <path d="M39.9828128,46.3130926 C40.9865504,46.3130926 41.7799192,46.0488491 42.3629191,45.520362 C42.9461968,44.9921326 43.2378357,44.3631531 43.2378357,43.6334235 C43.2378357,43.5579254 43.2378357,43.4761142 43.2378357,43.3879901 C43.2378357,43.299866 43.2378357,43.2306808 43.2378357,43.1804346 C43.2378357,42.1234604 43.5768311,41.2112985 44.254822,40.4439486 C44.9330906,39.6763411 45.9909064,38.8522002 47.4282693,37.9715258 C49.3814163,36.7636842 50.9952902,35.5055191 52.2698908,34.1970304 C53.5447692,32.888516 54.1822084,31.1019153 54.1822084,28.8372284 C54.1822084,26.7486609 53.5787938,24.9872219 52.3719644,23.5529116 C51.1648573,22.1186013 49.5848692,21.0302812 47.6319999,20.2879515 C45.6788528,19.5456474 43.5496115,19.1744954 41.2442758,19.1744954 C37.7451373,19.1744954 34.8902707,19.8350269 32.679676,21.15609 C30.4690536,22.4771789 29.0789362,24.0058619 28.5093238,25.7421391 C28.4008342,26.0440801 28.319453,26.3460341 28.2651804,26.6480009 C28.2109356,26.9499678 28.1838132,27.2645091 28.1838132,27.5916248 C28.1838132,28.4471761 28.4821875,29.0951332 29.0789362,29.5354961 C29.675657,29.9758591 30.3130684,30.1960405 30.9911704,30.1960405 C31.6692724,30.1960405 32.2456619,30.0576444 32.7203388,29.7808522 C33.1950158,29.50406 33.6086569,29.1391952 33.9612621,28.6862578 L34.6936089,27.7803573 C35.1818679,27.0506277 35.7379121,26.4278324 36.3617415,25.9119712 C36.9855987,25.3961359 37.6840459,24.9998093 38.4570833,24.7229913 C39.2301207,24.4461991 40.0641939,24.307803 40.959303,24.307803 C42.8307911,24.307803 44.3225933,24.7544531 45.4347094,25.6477535 C46.5468256,26.5410538 47.1028837,27.7048591 47.1028837,29.1391695 C47.1028837,30.4225092 46.6688973,31.4730802 45.8009245,32.2908824 C44.9329518,33.1087103 43.6039118,34.0963705 41.8138048,35.2538628 C40.3490279,36.1849122 39.1351853,37.2166216 38.1722771,38.3489908 C37.2093968,39.481257 36.7279566,40.978491 36.7279566,42.8406929 C36.7279566,42.9161911 36.7279566,42.9980022 36.7279566,43.0861263 C36.7279566,43.1739928 36.7279566,43.2556751 36.7279566,43.3311732 C36.7279566,45.3191195 37.8129086,46.3130926 39.9828128,46.3130926 Z M39.8607828,57.5612868 C41.0541967,57.5612868 42.0848901,57.1837961 42.9528628,56.4288145 C43.8208356,55.673833 44.254822,54.7428609 44.254822,53.6358982 C44.254822,52.5286778 43.8208356,51.5975769 42.9528628,50.8425953 C42.0848901,50.0876138 41.0541967,49.710123 39.8607828,49.710123 C38.6673133,49.710123 37.6433693,50.0939268 36.7889508,50.8615343 C35.93456,51.6288841 35.5073647,52.5536721 35.5073647,53.6358982 C35.5073647,54.7178666 35.941351,55.6425257 36.8093238,56.4098756 C37.6772966,57.1774831 38.6944496,57.5612868 39.8607828,57.5612868 Z" id="Shape" fill-opacity="0.850000024" fill="#FFFFFF"></path>
                </g>
            </g>
            <g id="펭귄-옆-최종" opacity="0.2" transform="translate(20.000000, 239.000000)" fill-rule="nonzero">
                <path d="M27.2839231,1.21517475 C24.8572734,-0.0939849685 22.0108612,-0.357615553 19.3893896,0.483994472 C15.688827,1.94635503 12.8644896,6.07537309 11.4863491,9.94632752 C10.4569972,12.8194359 10.635645,13.6710459 8.97677216,15.030181 C7.57214863,16.277384 5.81111697,17.0396863 3.94911129,17.2065176 C2.95378756,17.3355494 1.5501259,17.2667325 0.716435938,17.9376979 C0.245568531,18.2606793 -0.025146739,18.8081612 0.00184454515,19.3828542 C0.265562797,20.5355384 2.9622946,20.7849999 3.59181559,20.8366127 C6.05885731,21.0602678 7.07970215,20.3032812 7.53908234,20.8366127 C8.21113853,21.6194057 6.25451924,23.4172489 5.38680112,26.6430443 C5.30173071,26.9613228 3.77046344,32.9397968 6.82449094,35.7182819 C8.52589902,37.2752658 11.3332224,37.4903188 11.8436448,37.5333294 C13.0176164,37.6279528 13.145222,37.4128997 14.3957569,37.5333294 C16.947869,37.7999952 17.3306858,38.8494539 19.057615,38.9870879 C21.4310793,39.1677324 23.7109661,37.4215019 24.7998673,35.7182819 C25.4095941,34.692284 25.8924363,33.5944692 26.2375571,32.4494759 C28.0325426,27.7355137 27.8453878,27.2882034 28.3898383,23.7441295 C29.1469649,18.7807057 29.3000917,18.7721036 30.1848239,14.2817965 C30.5506266,12.466749 30.6527111,11.830192 30.9079223,10.2904124 C31.2250853,7.89760854 30.7173714,5.46736719 29.4702325,3.4087156 C28.9303675,2.50731858 28.1795473,1.7540149 27.2839231,1.21517475 Z" id="Path" fill="#000000"></path>
                <path d="M29.3960559,4.40915861 C28.6832755,3.67845789 26.5365488,4.00512409 25.5051137,4.77021072 C24.0963242,5.8017882 23.4925573,6.7388044 22.6707635,9.12002908 C21.7567275,11.7763411 22.0250684,11.3379206 21.2535884,13.4784439 C20.4821085,15.6189672 20.1886107,15.9284404 18.2515252,17.6477362 C15.6208944,20.0623178 14.0820089,23.4850652 14,27.1038631 C14.1090135,31.0668399 17.7064579,32.7173638 20.373095,33.6285906 C21.4380728,33.9982392 21.9999114,34.0068357 24.2640373,33.9982392 C25.4715711,33.9982392 25.9411675,33.5082399 26.0334097,33.2675385 C26.3856071,32.5454342 27.8027821,28.556668 28.8677599,21.6622919 C29.4212129,18.0345778 29.6224685,17.0717721 30.6371323,12.206165 C31.6937244,7.12564596 30.1843071,5.21722763 29.3960559,4.40915861 Z" id="Path" stroke="#000000" fill="#FFFFFF"></path>
                <path d="M6.84569335,31.4058052 C6.20640738,31.0348987 5.44768009,30.9123669 4.72017291,31.0625411 C4.3323676,31.2819319 4.07220213,31.6661003 4.0172449,32.1005064 C3.87498565,32.9831855 4.63649101,33.8903835 5.43146912,35.1980563 C6.11766076,36.3259241 5.76619675,37.06149 6.48586115,37.6499428 C6.77406669,37.9066773 7.16051752,38.0314982 7.54862137,37.9932069 C8.46075415,37.7643641 8.93774102,35.9009304 8.9628456,35.5821852 C9.10137718,34.4977214 8.84995294,33.3999312 8.25154939,32.4764623 C7.87883868,32.013436 7.39633159,31.6459733 6.84569335,31.4058052 L6.84569335,31.4058052 Z" id="Path" stroke="#000000" fill="#F8CD00"></path>
                <path d="M28.9701319,34.0313355 C28.3077912,33.9895548 27.6430968,33.9895548 26.9807561,34.0313355 C26.0549713,34.0178418 25.1414375,34.2263888 24.3308761,34.6362661 C23.5040589,34.916197 22.9677399,35.651535 23.0020045,36.4582596 C22.9829091,36.790275 23.1007897,37.1167328 23.3322566,37.372857 C23.5718495,37.6808035 23.9276941,37.8963624 24.3308761,37.9777876 C25.1617738,38.0739152 25.9995297,37.8554387 26.650504,37.372857 C27.5469025,36.8327404 27.7041655,36.6527015 27.9793755,36.4582596 C28.5662897,36.0928994 29.1210301,35.6859654 29.6384992,35.2411968 C29.7721727,35.1475766 30.1024248,34.9531346 29.9687513,34.6362661 C29.9294356,34.557049 29.7957621,34.1321573 28.9701319,34.0313355 Z" id="Path" stroke="#000000" fill="#F8CD00"></path>
                <path d="M31.2094365,11.0232867 C30.5781464,11.2531637 30.0827036,12.4025487 30.0187755,13.3146414 C29.9540224,13.7919681 30.0577637,14.2759117 30.314443,14.6939035 C30.7619397,15.2352268 31.537068,14.9608574 32.4959896,14.6197496 C33.2950909,14.3379649 33.8464708,14.1451648 33.974327,13.7150723 C34.1421383,13.1589183 33.4708932,12.5731027 32.4400525,11.6758408 C31.6009961,10.9417174 31.3532747,10.9713789 31.2094365,11.0232867 Z" id="Path" stroke="#000000" fill="#F8CD00"></path>
                <ellipse id="Oval" fill="#000000" cx="27" cy="11.5" rx="1" ry="1.5"></ellipse>
            </g>
        </g>
    </g>
</svg>