<svg id="레이어_1" data-name="레이어 1" xmlns="http://www.w3.org/2000/svg" viewBox="0 0 157 157"><defs><style>.cls-1{fill:#9de7fa;}.cls-2{fill:#fff;}.cls-3{fill:#f80;}</style></defs><circle class="cls-1" cx="78.5" cy="78.5" r="78.5"/><ellipse class="cls-2" cx="79" cy="79" rx="55.5" ry="44.5"/><path d="M63.58,133.68c-.18-13.09.36-19.87,1.64-26.5,1.61-8.29,5.68-14.36,9-16a12.68,12.68,0,0,1,11,0c4.62,2.27,6.31,6.95,7,9,3,9,2,15,2,19a12.13,12.13,0,0,1,5-1,14.35,14.35,0,0,1,5,1c0-3-1-8,1-17,.53-2.38,2.19-8.46,7-11,3.78-2,7.36-2.33,10.87-.5,3,1.56,6.93,5.53,8.92,14,4,17,1.79,28,1.79,31,0,0,12.55-5.53,19-21,5-12,3-26-3-35C137,60.52,115.17,55.18,99.19,55.18c-17,0-37.44,5.5-49.43,25.5-9,15-3.34,30.06-3,31C51.76,125.68,60.57,131.66,63.58,133.68Z" transform="translate(-21.26 -21.18)"/><path class="cls-3" d="M93.76,118.68c-2.25.58-3,1.89-3,3s2.3,3.38,4.48,5A6.9,6.9,0,0,0,98.4,128a11.68,11.68,0,0,0,3.36-.3c3-1,6-5,6-6s-.75-2.42-3-3A29.75,29.75,0,0,0,93.76,118.68Z" transform="translate(-21.26 -21.18)"/><circle cx="58" cy="90.5" r="4.5"/><circle cx="98" cy="90.5" r="4.5"/></svg>