<svg id="레이어_1" data-name="레이어 1" xmlns="http://www.w3.org/2000/svg" viewBox="0 0 157 157"><defs><style>.cls-1{fill:#9de7fa;}.cls-2{fill:#fff;}.cls-3{fill:#f80;}.cls-4{fill:none;stroke:#9de7fa;stroke-miterlimit:10;stroke-width:6px;}.cls-5,.cls-6{fill:#1d8bbe;}.cls-5{fill-opacity:0;}</style></defs><circle class="cls-1" cx="78.5" cy="78.5" r="78.5"/><ellipse class="cls-2" cx="78.5" cy="78.5" rx="55.5" ry="44.5"/><path d="M65.58,130.93c-.18-13.09.35-19.87,1.64-26.5,1.6-8.29,5.68-14.36,9-16a12.68,12.68,0,0,1,11,0c4.62,2.27,6.31,6.95,7,9,3,9,2,15,2,19a12.13,12.13,0,0,1,5-1,14.49,14.49,0,0,1,5,1c0-3-1-8,1-17,.53-2.38,2.19-8.45,7-11,3.78-2,7.37-2.33,10.88-.5,3,1.56,6.93,5.53,8.92,14,4,17,1.78,28,1.78,31,0,0,12.55-5.52,19-21,5-12,3-26-3-35-12.77-19.16-34.58-24.5-50.56-24.5-17,0-37.45,5.5-49.44,25.5-9,15-3.33,30.06-3,31C53.75,122.93,62.57,128.91,65.58,130.93Z" transform="translate(-23.72 -19.03)"/><path class="cls-3" d="M96.75,115.93c-2.24.58-3,1.89-3,3s2.31,3.38,4.49,5a6.82,6.82,0,0,0,3.16,1.28,11.6,11.6,0,0,0,3.35-.3c3-1,6-5,6-6s-.75-2.42-3-3A29.75,29.75,0,0,0,96.75,115.93Z" transform="translate(-23.72 -19.03)"/><circle cx="97.5" cy="89.5" r="4.5"/><line class="cls-4" x1="58.5" y1="95.5" x2="58.5" y2="123.5"/><line class="cls-4" x1="98" y1="95.5" x2="98" y2="123.5"/><path d="M116.13,102.62a52.71,52.71,0,0,0,9.52,6,2.25,2.25,0,1,0,2.27-3.89,48,48,0,0,1-4.61-2.53c-.74-.47-1.48-1-2.2-1.46L120,100l-.53-.39c-.2-.15-.18-.14.06,0l-.26-.2a2.47,2.47,0,0,0-1.59-.66,2.31,2.31,0,0,0-1.59.66,2.26,2.26,0,0,0,0,3.18Z" transform="translate(-23.72 -19.03)"/><circle cx="58.5" cy="89.5" r="4.5"/><path d="M84.13,99.44l-.26.2c.23-.18.25-.19.06,0l-.53.39-1.07.77c-.73.51-1.46,1-2.21,1.46a48,48,0,0,1-4.61,2.53,2.26,2.26,0,0,0-.8,3.08,2.31,2.31,0,0,0,3.08.81,52.71,52.71,0,0,0,9.52-6A2.25,2.25,0,0,0,88,101a2.31,2.31,0,0,0-.66-1.59,2.27,2.27,0,0,0-1.59-.66,2.61,2.61,0,0,0-1.59.66Z" transform="translate(-23.72 -19.03)"/><rect class="cls-5" x="11" y="41" width="24.28" height="35.5"/><path class="cls-6" d="M46.86,95.5A13.14,13.14,0,0,0,53.23,94a10.61,10.61,0,0,0,4.25-4.15A12.42,12.42,0,0,0,59,83.64a15.33,15.33,0,0,0-.38-3.45,24.45,24.45,0,0,0-1-3.2c-.37-1-.73-1.9-1.07-2.67A38.16,38.16,0,0,0,54.35,70Q53,67.77,51.59,65.57l-2.81-4.31a3.1,3.1,0,0,0-.89-.91,1.89,1.89,0,0,0-1-.32,1.92,1.92,0,0,0-1,.32,3.12,3.12,0,0,0-.9.91q-1.35,2.1-2.8,4.31T39.37,70a43.93,43.93,0,0,0-2.25,4.33c-.34.77-.7,1.66-1.07,2.67a26.09,26.09,0,0,0-.95,3.2,15.93,15.93,0,0,0-.38,3.45,12.42,12.42,0,0,0,1.51,6.23A10.61,10.61,0,0,0,40.48,94,13.16,13.16,0,0,0,46.86,95.5Z" transform="translate(-23.72 -19.03)"/></svg>