<svg id="레이어_1" data-name="레이어 1" xmlns="http://www.w3.org/2000/svg" viewBox="0 0 42.33 42.33"><defs><style>.cls-1{fill:#9de7fa;}.cls-2{fill:#fff;}.cls-3{fill:#f80;}.cls-4{fill:#ffc600;}</style></defs><circle class="cls-1" cx="21.17" cy="21.17" r="21.17"/><ellipse class="cls-2" cx="21.3" cy="21.3" rx="14.97" ry="12"/><path d="M88.49,101a32.76,32.76,0,0,1,.44-7.14c.43-2.24,1.53-3.87,2.42-4.32a3.44,3.44,0,0,1,3,0,4,4,0,0,1,1.88,2.43,12.88,12.88,0,0,1,.54,5.12,3.28,3.28,0,0,1,1.35-.27,4,4,0,0,1,1.34.27,15.1,15.1,0,0,1,.27-4.58,4.48,4.48,0,0,1,1.89-3,3,3,0,0,1,2.93-.13c.81.42,1.87,1.49,2.41,3.77a24.41,24.41,0,0,1,.48,8.36,11,11,0,0,0,5.12-5.66,10.43,10.43,0,0,0-.81-9.44c-3.44-5.16-9.32-6.6-13.63-6.6-4.58,0-10.1,1.48-13.33,6.87A10.08,10.08,0,0,0,84,95,11.38,11.38,0,0,0,88.49,101Z" transform="translate(-77.07 -70.63)"/><path class="cls-3" d="M96.62,96.92c-.6.16-.81.51-.81.81s.63.91,1.21,1.35a1.81,1.81,0,0,0,.86.35,2.37,2.37,0,0,0,2.52-1.7c0-.3-.2-.65-.81-.81A8.13,8.13,0,0,0,96.62,96.92Z" transform="translate(-77.07 -70.63)"/><circle cx="15.64" cy="24.4" r="1.21"/><circle cx="26.43" cy="24.4" r="1.21"/><path class="cls-4" d="M111.16,91.55A1,1,0,0,1,110,90.4v-.18a2.65,2.65,0,0,1,.52-1.72,6.36,6.36,0,0,1,1.28-1.18,9.61,9.61,0,0,0,1.41-1.13,1.79,1.79,0,0,0-.13-2.53,2.33,2.33,0,0,0-1.57-.51,2.5,2.5,0,0,0-.88.16,2.26,2.26,0,0,0-.74.45,2.79,2.79,0,0,0-.6.71l-.25.35a2,2,0,0,1-.45.41,1.1,1.1,0,0,1-.62.16,1.07,1.07,0,0,1-.68-.26.9.9,0,0,1-.32-.73,2.4,2.4,0,0,1,0-.37l.09-.34a3.23,3.23,0,0,1,1.48-1.75,5.63,5.63,0,0,1,3-.74,6,6,0,0,1,2.27.42,4,4,0,0,1,1.68,1.23,3.17,3.17,0,0,1,.64,2,3,3,0,0,1-.67,2.06,9.17,9.17,0,0,1-1.73,1.44,4.9,4.9,0,0,0-1.12.92,1.64,1.64,0,0,0-.36,1.06v.17a1,1,0,0,1-.31.73A1.16,1.16,0,0,1,111.16,91.55Zm0,4.29a1.57,1.57,0,0,1-1.08-.43,1.38,1.38,0,0,1-.47-1.07,1.42,1.42,0,0,1,.46-1.06,1.58,1.58,0,0,1,2.19,0,1.4,1.4,0,0,1,.46,1.06,1.38,1.38,0,0,1-.47,1.07A1.58,1.58,0,0,1,111.12,95.84Z" transform="translate(-77.07 -70.63)"/></svg>