<?xml version="1.0" encoding="UTF-8"?>
<svg width="330px" height="330px" viewBox="0 0 330 330" version="1.1" xmlns="http://www.w3.org/2000/svg" xmlns:xlink="http://www.w3.org/1999/xlink">
    <title>Group 5</title>
    <g id="Page-1" stroke="none" stroke-width="1" fill="none" fill-rule="evenodd">
        <g id="MyPangView" transform="translate(-29.000000, -120.000000)">
            <g id="Group-5" transform="translate(29.000000, 120.000000)">
                <rect id="Rectangle" fill="#FFFFFF" x="0" y="0" width="330" height="330" rx="15"></rect>
                <text id="Lv.-1" font-family="AppleSDGothicNeo-Bold, Apple SD Gothic Neo" font-size="28" font-weight="bold" fill="#159CCD">
                    <tspan x="138.728" y="50">Lv. 1</tspan>
                </text>
                <text id="Lv.-2" font-family="AppleSDGothicNeo-Bold, Apple SD Gothic Neo" font-size="16" font-weight="bold" fill="#B0B0B0">
                    <tspan x="270.636" y="273">Lv. 2</tspan>
                </text>
                <text id="Lawn" font-family="AppleSDGothicNeo-Bold, Apple SD Gothic Neo" font-size="18" font-weight="bold" fill="#000000">
                    <tspan x="144.715" y="223">Lawn</tspan>
                </text>
                <g id="펭귄레벨2-2" transform="translate(105.000000, 71.000000)" fill-rule="nonzero">
                    <path d="M59.6472525,0.0887529629 C60.7848964,-0.0193161422 76.5141922,-1.26056701 87.6138248,10.3738441 C95.4678263,18.6056222 97.0100334,29.0914131 97.3476764,31.3701273 C97.9773349,35.6496639 97.6001482,38.2896378 98.9689711,45.7711075 C100.505095,54.1943223 101.697491,55.4293978 103.622969,57.2820111 C105.846546,59.3939901 106.73476,59.7181975 111.531723,62.8398507 C115.048744,65.2381808 118.13518,68.2301658 120.657209,71.6860789 C122.716527,74.5082264 123.27014,76.1323507 122.886869,77.6514935 C122.795615,78.0065777 122.354549,79.5473344 121.061772,80.1216445 C119.674698,80.7391822 118.248081,79.8128756 113.563665,77.2408309 C108.985713,74.7181892 108.322594,74.4619111 107.686852,74.7706799 C106.029055,75.5518652 106.816889,78.976112 106.26936,83.2062455 C105.472401,89.3353076 102.923348,94.4824847 99.5773368,98.9750718 C98.4761948,100.444812 93.7978624,105.767987 87.2183871,108.920517 C75.8571572,114.361025 67.0875653,115.611539 62.4944041,115.914132 C56.5932566,116.303181 45.7460958,115.478768 36.5536897,111.183793 C33.9194661,109.948717 29.3810578,109.352794 24.1916982,102.337565 C22.2205932,99.6728894 16.030472,91.6171096 15.622867,82.9190905 C15.3186841,76.4349442 15.8844642,76.2126306 16.2890274,71.6860789 C16.3620313,70.8771045 12.8091755,70.5065818 10.8137359,70.6578786 C3.75973537,71.1951364 1.79471408,71.5440452 0.471518636,69.6296782 C-0.705669038,67.9129233 0.666195668,65.2636864 0.879123671,64.8962514 C2.6251333,61.8857549 6.11715255,61.944421 12.4380724,59.5483746 C16.2464418,58.1033363 18.8745818,57.6957613 20.7483482,54.8180355 C22.8380845,51.6037515 23.1635601,47.6329838 23.3825718,43.9154066 C24.1308616,31.036657 28.0213604,21.2486837 30.2631881,17.9849968 C32.0244069,15.4222151 34.9354369,9.99405837 43.2335453,5.23284236 C48.2863251,2.3627116 53.8799306,0.609664188 59.6472525,0.0887529629 L59.6472525,0.0887529629 Z" id="Path" fill="#000000"></path>
                    <path d="M55.072344,15.2386822 C66.7878869,13.8434265 75.6376468,18.9705344 77.5615077,20.1434023 C81.1321934,22.318539 85.2138566,27.0191495 87.4917078,32.6580544 C88.7999332,35.8994346 89.4309595,38.4157692 89.7480118,44.0242099 C90.0558295,49.3219168 89.9203897,49.1208538 90.5298688,51.7377199 C91.7088108,56.8038997 94.3344961,58.0224637 96.8093506,62.3361801 C101.69134,70.8417567 99.6905246,80.4105304 99.037951,83.5270078 C98.1347286,88.3005358 96.1242484,92.8014171 93.1647887,96.6753132 C89.6094938,101.278439 85.6571141,103.682056 83.2345885,105.113869 C81.4831056,106.152695 73.3074666,110.828934 61.5549855,111 C56.3960706,111.022085 51.2666954,110.22812 46.3611021,108.647704 C41.0112298,106.944761 33.3711936,104.516772 27.3133406,97.2632703 C26.2883076,96.0447063 20.4059106,88.7912042 20.0211385,78.4273175 C19.7133207,70.3634704 22.8561398,63.3262634 23.6687786,61.5502064 C25.4941378,57.5502701 27.1625099,55.7346098 28.3291391,50.9547926 C29.2525923,47.219894 29.3726413,45.6357608 30.0683093,40.5726274 C30.87787,34.7143811 31.4565673,31.6070429 33.9652819,27.5827354 C36.3632962,23.7113404 39.817169,20.5887884 43.9293419,18.5745011 C47.414567,16.8177827 51.1876065,15.6882687 55.072344,15.2386822 Z" id="Path" fill="#FFFFFF"></path>
                    <ellipse id="Oval" fill="#000000" cx="67.5" cy="41" rx="2.5" ry="4"></ellipse>
                    <ellipse id="Oval" fill="#000000" cx="40.5" cy="41" rx="2.5" ry="4"></ellipse>
                    <path d="M53.2109024,44.0165404 C52.0523253,44.078679 49.8156279,44.544719 48.383498,45.7112311 C47.6272046,46.3241443 46.6359776,47.5923379 47.1348094,48.8181642 C47.9844325,50.9054583 55.1804834,51.6793671 58.9297675,50.3236145 C59.9692686,49.947958 60.6129225,49.6655096 60.9347494,48.8181642 C61.394962,47.6064603 59.3256146,45.7112311 57.7164798,44.8638858 C55.9657412,43.9431038 53.9865054,43.9741731 53.2109024,44.0165404 Z" id="Path" fill="#F2D041"></path>
                    <path d="M72.0084691,105.133877 C69.5357874,105.488073 67.2500554,106.730026 65.527984,108.655049 C64.3850621,109.927194 62.2347193,113.052588 63.2774882,115.251358 C65.0448933,118.970419 76.8717786,118.62804 83.104827,115.939258 C86.4628965,114.491212 85.8560875,112.798159 85.9739145,112.103976 C86.3774719,109.74501 82.0001988,107.049947 79.6554415,106.082489 C77.2153625,105.113881 74.5919039,104.788439 72.0084691,105.133877 L72.0084691,105.133877 Z" id="Path" stroke="#000000" stroke-width="4" fill="#F2D041"></path>
                    <path d="M38.9903638,103.133311 C41.4630844,103.488251 43.7488352,104.730142 45.4715092,106.654638 C46.6174936,107.929981 48.7651095,111.052371 47.7222343,113.251237 C45.9546492,116.970462 34.1295047,116.628067 27.8958212,113.939168 C24.5374095,112.487916 25.1413344,110.779083 25.0264414,110.100576 C24.6198968,107.744648 29.0005619,105.049466 31.3455582,104.078824 C33.7856283,103.113559 36.4078614,102.78924 38.9903638,103.133311 Z" id="Path" stroke="#000000" stroke-width="4" fill="#F2D041"></path>
                </g>
                <path d="M298,286.5 C298.324555,286.5 298.640356,286.605267 298.9,286.8 L298.9,286.8 L309.566667,294.8 C309.898038,295.048528 310.097302,295.407843 310.151591,295.787868 C310.20588,296.167893 310.115195,296.568629 309.866667,296.9 L309.866667,296.9 L298.9,305.2 C298.568629,305.448528 298.167893,305.539214 297.787868,305.484924 C297.407843,305.430635 297.048528,305.231371 296.8,304.9 C296.605267,304.640356 296.5,304.324555 296.5,304 L296.5,304 L296.5,300.5 L25,300.5 C23.7573593,300.5 22.6323593,299.99632 21.8180195,299.181981 C21.0036797,298.367641 20.5,297.242641 20.5,296 C20.5,294.757359 21.0036797,293.632359 21.8180195,292.818019 C22.6323593,292.00368 23.7573593,291.5 25,291.5 L25,291.5 L296.5,291.5 L296.5,288 C296.5,287.585786 296.667893,287.210786 296.93934,286.93934 C297.210786,286.667893 297.585786,286.5 298,286.5 Z" id="Combined-Shape" stroke="#E2E2E2" fill="#EDEDED"></path>
                <path d="M25,291 L57.3411094,291 L57.3411094,291 L79,291 C81.7614237,291 84,293.238576 84,296 C84,298.761424 81.7614237,301 79,301 L25,301 C22.2385763,301 20,298.761424 20,296 C20,293.238576 22.2385763,291 25,291 Z" id="Rectangle" fill="#159CCD"></path>
                <g id="펭귄-옆-최종" transform="translate(60.000000, 239.000000)" fill-rule="nonzero">
                    <path d="M27.2839231,1.21517475 C24.8572734,-0.0939849685 22.0108612,-0.357615553 19.3893896,0.483994472 C15.688827,1.94635503 12.8644896,6.07537309 11.4863491,9.94632752 C10.4569972,12.8194359 10.635645,13.6710459 8.97677216,15.030181 C7.57214863,16.277384 5.81111697,17.0396863 3.94911129,17.2065176 C2.95378756,17.3355494 1.5501259,17.2667325 0.716435938,17.9376979 C0.245568531,18.2606793 -0.025146739,18.8081612 0.00184454515,19.3828542 C0.265562797,20.5355384 2.9622946,20.7849999 3.59181559,20.8366127 C6.05885731,21.0602678 7.07970215,20.3032812 7.53908234,20.8366127 C8.21113853,21.6194057 6.25451924,23.4172489 5.38680112,26.6430443 C5.30173071,26.9613228 3.77046344,32.9397968 6.82449094,35.7182819 C8.52589902,37.2752658 11.3332224,37.4903188 11.8436448,37.5333294 C13.0176164,37.6279528 13.145222,37.4128997 14.3957569,37.5333294 C16.947869,37.7999952 17.3306858,38.8494539 19.057615,38.9870879 C21.4310793,39.1677324 23.7109661,37.4215019 24.7998673,35.7182819 C25.4095941,34.692284 25.8924363,33.5944692 26.2375571,32.4494759 C28.0325426,27.7355137 27.8453878,27.2882034 28.3898383,23.7441295 C29.1469649,18.7807057 29.3000917,18.7721036 30.1848239,14.2817965 C30.5506266,12.466749 30.6527111,11.830192 30.9079223,10.2904124 C31.2250853,7.89760854 30.7173714,5.46736719 29.4702325,3.4087156 C28.9303675,2.50731858 28.1795473,1.7540149 27.2839231,1.21517475 Z" id="Path" fill="#000000"></path>
                    <path d="M29.3960559,4.40915861 C28.6832755,3.67845789 26.5365488,4.00512409 25.5051137,4.77021072 C24.0963242,5.8017882 23.4925573,6.7388044 22.6707635,9.12002908 C21.7567275,11.7763411 22.0250684,11.3379206 21.2535884,13.4784439 C20.4821085,15.6189672 20.1886107,15.9284404 18.2515252,17.6477362 C15.6208944,20.0623178 14.0820089,23.4850652 14,27.1038631 C14.1090135,31.0668399 17.7064579,32.7173638 20.373095,33.6285906 C21.4380728,33.9982392 21.9999114,34.0068357 24.2640373,33.9982392 C25.4715711,33.9982392 25.9411675,33.5082399 26.0334097,33.2675385 C26.3856071,32.5454342 27.8027821,28.556668 28.8677599,21.6622919 C29.4212129,18.0345778 29.6224685,17.0717721 30.6371323,12.206165 C31.6937244,7.12564596 30.1843071,5.21722763 29.3960559,4.40915861 Z" id="Path" stroke="#000000" fill="#FFFFFF"></path>
                    <path d="M6.84569335,31.4058052 C6.20640738,31.0348987 5.44768009,30.9123669 4.72017291,31.0625411 C4.3323676,31.2819319 4.07220213,31.6661003 4.0172449,32.1005064 C3.87498565,32.9831855 4.63649101,33.8903835 5.43146912,35.1980563 C6.11766076,36.3259241 5.76619675,37.06149 6.48586115,37.6499428 C6.77406669,37.9066773 7.16051752,38.0314982 7.54862137,37.9932069 C8.46075415,37.7643641 8.93774102,35.9009304 8.9628456,35.5821852 C9.10137718,34.4977214 8.84995294,33.3999312 8.25154939,32.4764623 C7.87883868,32.013436 7.39633159,31.6459733 6.84569335,31.4058052 L6.84569335,31.4058052 Z" id="Path" stroke="#000000" fill="#F8CD00"></path>
                    <path d="M28.9701319,34.0313355 C28.3077912,33.9895548 27.6430968,33.9895548 26.9807561,34.0313355 C26.0549713,34.0178418 25.1414375,34.2263888 24.3308761,34.6362661 C23.5040589,34.916197 22.9677399,35.651535 23.0020045,36.4582596 C22.9829091,36.790275 23.1007897,37.1167328 23.3322566,37.372857 C23.5718495,37.6808035 23.9276941,37.8963624 24.3308761,37.9777876 C25.1617738,38.0739152 25.9995297,37.8554387 26.650504,37.372857 C27.5469025,36.8327404 27.7041655,36.6527015 27.9793755,36.4582596 C28.5662897,36.0928994 29.1210301,35.6859654 29.6384992,35.2411968 C29.7721727,35.1475766 30.1024248,34.9531346 29.9687513,34.6362661 C29.9294356,34.557049 29.7957621,34.1321573 28.9701319,34.0313355 Z" id="Path" stroke="#000000" fill="#F8CD00"></path>
                    <path d="M31.2094365,11.0232867 C30.5781464,11.2531637 30.0827036,12.4025487 30.0187755,13.3146414 C29.9540224,13.7919681 30.0577637,14.2759117 30.314443,14.6939035 C30.7619397,15.2352268 31.537068,14.9608574 32.4959896,14.6197496 C33.2950909,14.3379649 33.8464708,14.1451648 33.974327,13.7150723 C34.1421383,13.1589183 33.4708932,12.5731027 32.4400525,11.6758408 C31.6009961,10.9417174 31.3532747,10.9713789 31.2094365,11.0232867 Z" id="Path" stroke="#000000" fill="#F8CD00"></path>
                    <ellipse id="Oval" fill="#000000" cx="27" cy="11.5" rx="1" ry="1.5"></ellipse>
                </g>
            </g>
        </g>
    </g>
</svg>