<svg id="레이어_1" data-name="레이어 1" xmlns="http://www.w3.org/2000/svg" viewBox="0 0 157 157"><defs><style>.cls-1{fill:#9de7fa;}.cls-2{fill:#fff;}.cls-3{fill:#f80;}.cls-4,.cls-5{fill:#ff326a;}.cls-4{fill-opacity:0;}</style></defs><circle class="cls-1" cx="78.5" cy="78.5" r="78.5"/><ellipse class="cls-2" cx="79" cy="79" rx="55.5" ry="44.5"/><path d="M67,132.53c-.18-13.08.36-19.87,1.64-26.5,1.61-8.29,5.69-14.35,9-16a12.71,12.71,0,0,1,11,0c4.62,2.28,6.31,7,7,9,3,9,2,15,2,19a12.13,12.13,0,0,1,5-1,14.62,14.62,0,0,1,5,1c0-3-1-8,1-17,.53-2.38,2.2-8.45,7-11,3.78-2,7.36-2.33,10.87-.5,3,1.56,6.93,5.54,8.92,14,4,17,1.79,28,1.79,31,0,0,12.55-5.52,19-21,5-12,3-26-3-35C140.45,59.38,118.63,54,102.65,54c-17,0-37.44,5.5-49.43,25.5-9,15-3.34,30.07-3,31C55.22,124.53,64,130.52,67,132.53Z" transform="translate(-24.72 -20.03)"/><path class="cls-3" d="M97.22,117.53c-2.25.59-3,1.9-3,3s2.3,3.39,4.48,5a6.81,6.81,0,0,0,3.17,1.29,11.51,11.51,0,0,0,3.35-.31c3-1,6-5,6-6s-.75-2.41-3-3A30.19,30.19,0,0,0,97.22,117.53Z" transform="translate(-24.72 -20.03)"/><path d="M126.7,104.33a10.44,10.44,0,0,1-2.09,1.48,13.71,13.71,0,0,1-2.34,1.07,39.81,39.81,0,0,1-5.58,1.46,1.82,1.82,0,0,0-.43,3.29A30.8,30.8,0,0,0,129,114.87a1.8,1.8,0,0,0,0-3.6,26.7,26.7,0,0,1-10.91-2.75l-.43,3.29c4.17-.84,8.37-2,11.6-4.93a1.8,1.8,0,0,0-2.55-2.55Z" transform="translate(-24.72 -20.03)"/><path d="M76.06,106.88c3.24,2.91,7.44,4.09,11.61,4.93l-.43-3.29a26.79,26.79,0,0,1-10.92,2.75,1.83,1.83,0,0,0-1.8,1.8,1.85,1.85,0,0,0,1.8,1.8,30.8,30.8,0,0,0,12.73-3.24,1.82,1.82,0,0,0-.43-3.29A39.81,39.81,0,0,1,83,106.88a13.37,13.37,0,0,1-2.34-1.07,10.44,10.44,0,0,1-2.09-1.48,1.85,1.85,0,0,0-2.55,0,1.83,1.83,0,0,0,0,2.55Z" transform="translate(-24.72 -20.03)"/><rect class="cls-4" x="8.96" y="45.22" width="30.73" height="29.36"/><path class="cls-5" d="M49,94.61a1.65,1.65,0,0,0,.57-.13,4.16,4.16,0,0,0,.56-.29,49.79,49.79,0,0,0,7.56-5.84,25.58,25.58,0,0,0,4.94-6.29,13.59,13.59,0,0,0,1.74-6.52,10.4,10.4,0,0,0-.66-3.77,9.26,9.26,0,0,0-1.82-3,8.08,8.08,0,0,0-2.74-1.93,8.37,8.37,0,0,0-3.4-.69,7,7,0,0,0-4,1.16A8.65,8.65,0,0,0,49,70.42a8.56,8.56,0,0,0-2.75-3.06,6.94,6.94,0,0,0-4-1.17,8.29,8.29,0,0,0-3.39.69,8,8,0,0,0-2.74,1.93,9,9,0,0,0-1.84,3,10.62,10.62,0,0,0-.65,3.77,13.59,13.59,0,0,0,1.74,6.52,25.58,25.58,0,0,0,4.94,6.29,50.4,50.4,0,0,0,7.57,5.84,4.16,4.16,0,0,0,.56.29A1.66,1.66,0,0,0,49,94.61Z" transform="translate(-24.72 -20.03)"/></svg>