<svg id="레이어_1" data-name="레이어 1" xmlns="http://www.w3.org/2000/svg" viewBox="0 0 157 157"><defs><style>.cls-1{fill:#9de7fa;}.cls-2{fill:#fff;}.cls-3{fill:#f80;}.cls-4{fill:#b2b2b2;}</style></defs><circle class="cls-1" cx="78.5" cy="78.5" r="78.5"/><ellipse class="cls-2" cx="79" cy="79" rx="55.5" ry="44.5"/><path d="M66,135.53c-.18-13.08.36-19.87,1.64-26.5,1.61-8.29,5.69-14.35,9-16a12.71,12.71,0,0,1,11,0c4.62,2.28,6.31,7,7,9,3,9,2,15,2,19a12.13,12.13,0,0,1,5-1,14.62,14.62,0,0,1,5,1c0-3-1-8,1-17,.53-2.38,2.2-8.45,7-11,3.78-2,7.36-2.33,10.87-.5,3,1.56,6.93,5.54,8.92,14,4,17,1.79,28,1.79,31,0,0,12.55-5.52,19-21,5-12,3-26-3-35C139.45,62.38,117.63,57,101.65,57c-17,0-37.44,5.5-49.43,25.5-9,15-3.34,30.07-3,31C54.22,127.53,63,133.52,66,135.53Z" transform="translate(-23.72 -23.03)"/><path class="cls-3" d="M96.22,120.53c-2.25.59-3,1.9-3,3s2.3,3.39,4.48,5a6.81,6.81,0,0,0,3.17,1.29,11.51,11.51,0,0,0,3.35-.31c3-1,6-5,6-6s-.75-2.41-3-3A30.19,30.19,0,0,0,96.22,120.53Z" transform="translate(-23.72 -23.03)"/><circle cx="58" cy="90.5" r="4.5"/><circle cx="98" cy="90.5" r="4.5"/><path d="M75.34,111.89H88.17a2.25,2.25,0,0,0,0-4.5H75.34a2.25,2.25,0,0,0,0,4.5Z" transform="translate(-23.72 -23.03)"/><path d="M115.26,111.62h12.83a2.25,2.25,0,0,0,0-4.5H115.26a2.25,2.25,0,1,0,0,4.5Z" transform="translate(-23.72 -23.03)"/><path class="cls-4" d="M64.61,72A11.55,11.55,0,0,0,43,68.93a9.25,9.25,0,0,0,1,18.44h20A7.68,7.68,0,0,0,64.61,72Z" transform="translate(-23.72 -23.03)"/></svg>